<svg id="mermaid-svg" width="100%" xmlns="http://www.w3.org/2000/svg" style="max-width: 2063px;" viewBox="-50 -10 2063 3120" role="graphics-document document" aria-roledescription="sequence" xmlns:xlink="http://www.w3.org/1999/xlink"><style xmlns="http://www.w3.org/1999/xhtml">@import url("https://cdnjs.cloudflare.com/ajax/libs/font-awesome/6.7.2/css/all.min.css");</style><g><rect x="1723.5" y="3034" fill="#eaeaea" stroke="#666" width="150" height="65" name="SubB" rx="3" ry="3" class="actor actor-bottom"/><text x="1798.5" y="3066.5" dominant-baseline="central" alignment-baseline="central" class="actor actor-box" style="text-anchor: middle; font-size: 16px; font-weight: 400;"><tspan x="1798.5" dy="0">🤖 Sous-Agent B</tspan></text></g><g><rect x="1519" y="3034" fill="#eaeaea" stroke="#666" width="150" height="65" name="SubA" rx="3" ry="3" class="actor actor-bottom"/><text x="1594" y="3066.5" dominant-baseline="central" alignment-baseline="central" class="actor actor-box" style="text-anchor: middle; font-size: 16px; font-weight: 400;"><tspan x="1594" dy="0">🤖 Sous-Agent A</tspan></text></g><g><rect x="1305" y="3034" fill="#eaeaea" stroke="#666" width="164" height="65" name="MCPs" rx="3" ry="3" class="actor actor-bottom"/><text x="1387" y="3066.5" dominant-baseline="central" alignment-baseline="central" class="actor actor-box" style="text-anchor: middle; font-size: 16px; font-weight: 400;"><tspan x="1387" dy="-8">📡 MCP Servers</tspan></text><text x="1387" y="3066.5" dominant-baseline="central" alignment-baseline="central" class="actor actor-box" style="text-anchor: middle; font-size: 16px; font-weight: 400;"><tspan x="1387" dy="8">(GitHub, DB, Slack...)</tspan></text></g><g><rect x="1017" y="3034" fill="#eaeaea" stroke="#666" width="150" height="65" name="MCP" rx="3" ry="3" class="actor actor-bottom"/><text x="1092" y="3066.5" dominant-baseline="central" alignment-baseline="central" class="actor actor-box" style="text-anchor: middle; font-size: 16px; font-weight: 400;"><tspan x="1092" dy="0">🔌 MCP Client</tspan></text></g><g><rect x="817" y="3034" fill="#eaeaea" stroke="#666" width="150" height="65" name="Tools" rx="3" ry="3" class="actor actor-bottom"/><text x="892" y="3066.5" dominant-baseline="central" alignment-baseline="central" class="actor actor-box" style="text-anchor: middle; font-size: 16px; font-weight: 400;"><tspan x="892" dy="0">🔧 Outils Built-in</tspan></text></g><g><rect x="617" y="3034" fill="#eaeaea" stroke="#666" width="150" height="65" name="LLM" rx="3" ry="3" class="actor actor-bottom"/><text x="692" y="3066.5" dominant-baseline="central" alignment-baseline="central" class="actor actor-box" style="text-anchor: middle; font-size: 16px; font-weight: 400;"><tspan x="692" dy="-8">☁️ Service LLM</tspan></text><text x="692" y="3066.5" dominant-baseline="central" alignment-baseline="central" class="actor actor-box" style="text-anchor: middle; font-size: 16px; font-weight: 400;"><tspan x="692" dy="8">(stateless)</tspan></text></g><g><rect x="299" y="3034" fill="#eaeaea" stroke="#666" width="150" height="65" name="Agent" rx="3" ry="3" class="actor actor-bottom"/><text x="374" y="3066.5" dominant-baseline="central" alignment-baseline="central" class="actor actor-box" style="text-anchor: middle; font-size: 16px; font-weight: 400;"><tspan x="374" dy="0">🤖 Agent Principal</tspan></text></g><g/><g><line id="actor7" x1="1798.5" y1="65" x2="1798.5" y2="3034" class="actor-line 200" stroke-width="0.5px" stroke="#999" name="SubB"/><g id="root-7"><rect x="1723.5" y="0" fill="#eaeaea" stroke="#666" width="150" height="65" name="SubB" rx="3" ry="3" class="actor actor-top"/><text x="1798.5" y="32.5" dominant-baseline="central" alignment-baseline="central" class="actor actor-box" style="text-anchor: middle; font-size: 16px; font-weight: 400;"><tspan x="1798.5" dy="0">🤖 Sous-Agent B</tspan></text></g></g><g><line id="actor6" x1="1594" y1="65" x2="1594" y2="3034" class="actor-line 200" stroke-width="0.5px" stroke="#999" name="SubA"/><g id="root-6"><rect x="1519" y="0" fill="#eaeaea" stroke="#666" width="150" height="65" name="SubA" rx="3" ry="3" class="actor actor-top"/><text x="1594" y="32.5" dominant-baseline="central" alignment-baseline="central" class="actor actor-box" style="text-anchor: middle; font-size: 16px; font-weight: 400;"><tspan x="1594" dy="0">🤖 Sous-Agent A</tspan></text></g></g><g><line id="actor5" x1="1387" y1="65" x2="1387" y2="3034" class="actor-line 200" stroke-width="0.5px" stroke="#999" name="MCPs"/><g id="root-5"><rect x="1305" y="0" fill="#eaeaea" stroke="#666" width="164" height="65" name="MCPs" rx="3" ry="3" class="actor actor-top"/><text x="1387" y="32.5" dominant-baseline="central" alignment-baseline="central" class="actor actor-box" style="text-anchor: middle; font-size: 16px; font-weight: 400;"><tspan x="1387" dy="-8">📡 MCP Servers</tspan></text><text x="1387" y="32.5" dominant-baseline="central" alignment-baseline="central" class="actor actor-box" style="text-anchor: middle; font-size: 16px; font-weight: 400;"><tspan x="1387" dy="8">(GitHub, DB, Slack...)</tspan></text></g></g><g><line id="actor4" x1="1092" y1="65" x2="1092" y2="3034" class="actor-line 200" stroke-width="0.5px" stroke="#999" name="MCP"/><g id="root-4"><rect x="1017" y="0" fill="#eaeaea" stroke="#666" width="150" height="65" name="MCP" rx="3" ry="3" class="actor actor-top"/><text x="1092" y="32.5" dominant-baseline="central" alignment-baseline="central" class="actor actor-box" style="text-anchor: middle; font-size: 16px; font-weight: 400;"><tspan x="1092" dy="0">🔌 MCP Client</tspan></text></g></g><g><line id="actor3" x1="892" y1="65" x2="892" y2="3034" class="actor-line 200" stroke-width="0.5px" stroke="#999" name="Tools"/><g id="root-3"><rect x="817" y="0" fill="#eaeaea" stroke="#666" width="150" height="65" name="Tools" rx="3" ry="3" class="actor actor-top"/><text x="892" y="32.5" dominant-baseline="central" alignment-baseline="central" class="actor actor-box" style="text-anchor: middle; font-size: 16px; font-weight: 400;"><tspan x="892" dy="0">🔧 Outils Built-in</tspan></text></g></g><g><line id="actor2" x1="692" y1="65" x2="692" y2="3034" class="actor-line 200" stroke-width="0.5px" stroke="#999" name="LLM"/><g id="root-2"><rect x="617" y="0" fill="#eaeaea" stroke="#666" width="150" height="65" name="LLM" rx="3" ry="3" class="actor actor-top"/><text x="692" y="32.5" dominant-baseline="central" alignment-baseline="central" class="actor actor-box" style="text-anchor: middle; font-size: 16px; font-weight: 400;"><tspan x="692" dy="-8">☁️ Service LLM</tspan></text><text x="692" y="32.5" dominant-baseline="central" alignment-baseline="central" class="actor actor-box" style="text-anchor: middle; font-size: 16px; font-weight: 400;"><tspan x="692" dy="8">(stateless)</tspan></text></g></g><g><line id="actor1" x1="374" y1="65" x2="374" y2="3034" class="actor-line 200" stroke-width="0.5px" stroke="#999" name="Agent"/><g id="root-1"><rect x="299" y="0" fill="#eaeaea" stroke="#666" width="150" height="65" name="Agent" rx="3" ry="3" class="actor actor-top"/><text x="374" y="32.5" dominant-baseline="central" alignment-baseline="central" class="actor actor-box" style="text-anchor: middle; font-size: 16px; font-weight: 400;"><tspan x="374" dy="0">🤖 Agent Principal</tspan></text></g></g><g><line id="actor0" x1="75" y1="80" x2="75" y2="3034" class="actor-line 200" stroke-width="0.5px" stroke="#999" name="User"/></g><style>#mermaid-svg{font-family:"trebuchet ms",verdana,arial,sans-serif;font-size:16px;fill:#333;}@keyframes edge-animation-frame{from{stroke-dashoffset:0;}}@keyframes dash{to{stroke-dashoffset:0;}}#mermaid-svg .edge-animation-slow{stroke-dasharray:9,5!important;stroke-dashoffset:900;animation:dash 50s linear infinite;stroke-linecap:round;}#mermaid-svg .edge-animation-fast{stroke-dasharray:9,5!important;stroke-dashoffset:900;animation:dash 20s linear infinite;stroke-linecap:round;}#mermaid-svg .error-icon{fill:#552222;}#mermaid-svg .error-text{fill:#552222;stroke:#552222;}#mermaid-svg .edge-thickness-normal{stroke-width:1px;}#mermaid-svg .edge-thickness-thick{stroke-width:3.5px;}#mermaid-svg .edge-pattern-solid{stroke-dasharray:0;}#mermaid-svg .edge-thickness-invisible{stroke-width:0;fill:none;}#mermaid-svg .edge-pattern-dashed{stroke-dasharray:3;}#mermaid-svg .edge-pattern-dotted{stroke-dasharray:2;}#mermaid-svg .marker{fill:#333333;stroke:#333333;}#mermaid-svg .marker.cross{stroke:#333333;}#mermaid-svg svg{font-family:"trebuchet ms",verdana,arial,sans-serif;font-size:16px;}#mermaid-svg p{margin:0;}#mermaid-svg .actor{stroke:hsl(259.6261682243, 59.7765363128%, 87.9019607843%);fill:#ECECFF;}#mermaid-svg text.actor&gt;tspan{fill:black;stroke:none;}#mermaid-svg .actor-line{stroke:hsl(259.6261682243, 59.7765363128%, 87.9019607843%);}#mermaid-svg .innerArc{stroke-width:1.5;stroke-dasharray:none;}#mermaid-svg .messageLine0{stroke-width:1.5;stroke-dasharray:none;stroke:#333;}#mermaid-svg .messageLine1{stroke-width:1.5;stroke-dasharray:2,2;stroke:#333;}#mermaid-svg #arrowhead path{fill:#333;stroke:#333;}#mermaid-svg .sequenceNumber{fill:white;}#mermaid-svg #sequencenumber{fill:#333;}#mermaid-svg #crosshead path{fill:#333;stroke:#333;}#mermaid-svg .messageText{fill:#333;stroke:none;}#mermaid-svg .labelBox{stroke:hsl(259.6261682243, 59.7765363128%, 87.9019607843%);fill:#ECECFF;}#mermaid-svg .labelText,#mermaid-svg .labelText&gt;tspan{fill:black;stroke:none;}#mermaid-svg .loopText,#mermaid-svg .loopText&gt;tspan{fill:black;stroke:none;}#mermaid-svg .loopLine{stroke-width:2px;stroke-dasharray:2,2;stroke:hsl(259.6261682243, 59.7765363128%, 87.9019607843%);fill:hsl(259.6261682243, 59.7765363128%, 87.9019607843%);}#mermaid-svg .note{stroke:#aaaa33;fill:#fff5ad;}#mermaid-svg .noteText,#mermaid-svg .noteText&gt;tspan{fill:black;stroke:none;}#mermaid-svg .activation0{fill:#f4f4f4;stroke:#666;}#mermaid-svg .activation1{fill:#f4f4f4;stroke:#666;}#mermaid-svg .activation2{fill:#f4f4f4;stroke:#666;}#mermaid-svg .actorPopupMenu{position:absolute;}#mermaid-svg .actorPopupMenuPanel{position:absolute;fill:#ECECFF;box-shadow:0px 8px 16px 0px rgba(0,0,0,0.2);filter:drop-shadow(3px 5px 2px rgb(0 0 0 / 0.4));}#mermaid-svg .actor-man line{stroke:hsl(259.6261682243, 59.7765363128%, 87.9019607843%);fill:#ECECFF;}#mermaid-svg .actor-man circle,#mermaid-svg line{stroke:hsl(259.6261682243, 59.7765363128%, 87.9019607843%);fill:#ECECFF;stroke-width:2px;}#mermaid-svg :root{--mermaid-font-family:"trebuchet ms",verdana,arial,sans-serif;}</style><g/><defs><symbol id="computer" width="24" height="24"><path transform="scale(.5)" d="M2 2v13h20v-13h-20zm18 11h-16v-9h16v9zm-10.228 6l.466-1h3.524l.467 1h-4.457zm14.228 3h-24l2-6h2.104l-1.33 4h18.45l-1.297-4h2.073l2 6zm-5-10h-14v-7h14v7z"/></symbol></defs><defs><symbol id="database" fill-rule="evenodd" clip-rule="evenodd"><path transform="scale(.5)" d="M12.258.001l.256.004.255.005.253.008.251.01.249.012.247.015.246.016.242.019.241.02.239.023.236.024.233.027.231.028.229.031.225.032.223.034.22.036.217.038.214.04.211.041.208.043.205.045.201.046.198.048.194.05.191.051.187.053.183.054.18.056.175.057.172.059.168.06.163.061.16.063.155.064.15.066.074.033.073.033.071.034.07.034.069.035.068.035.067.035.066.035.064.036.064.036.062.036.06.036.06.037.058.037.058.037.055.038.055.038.053.038.052.038.051.039.05.039.048.039.047.039.045.04.044.04.043.04.041.04.04.041.039.041.037.041.036.041.034.041.033.042.032.042.03.042.029.042.027.042.026.043.024.043.023.043.021.043.02.043.018.044.017.043.015.044.013.044.012.044.011.045.009.044.007.045.006.045.004.045.002.045.001.045v17l-.001.045-.002.045-.004.045-.006.045-.007.045-.009.044-.011.045-.012.044-.013.044-.015.044-.017.043-.018.044-.02.043-.021.043-.023.043-.024.043-.026.043-.027.042-.029.042-.03.042-.032.042-.033.042-.034.041-.036.041-.037.041-.039.041-.04.041-.041.04-.043.04-.044.04-.045.04-.047.039-.048.039-.05.039-.051.039-.052.038-.053.038-.055.038-.055.038-.058.037-.058.037-.06.037-.06.036-.062.036-.064.036-.064.036-.066.035-.067.035-.068.035-.069.035-.07.034-.071.034-.073.033-.074.033-.15.066-.155.064-.16.063-.163.061-.168.06-.172.059-.175.057-.18.056-.183.054-.187.053-.191.051-.194.05-.198.048-.201.046-.205.045-.208.043-.211.041-.214.04-.217.038-.22.036-.223.034-.225.032-.229.031-.231.028-.233.027-.236.024-.239.023-.241.02-.242.019-.246.016-.247.015-.249.012-.251.01-.253.008-.255.005-.256.004-.258.001-.258-.001-.256-.004-.255-.005-.253-.008-.251-.01-.249-.012-.247-.015-.245-.016-.243-.019-.241-.02-.238-.023-.236-.024-.234-.027-.231-.028-.228-.031-.226-.032-.223-.034-.22-.036-.217-.038-.214-.04-.211-.041-.208-.043-.204-.045-.201-.046-.198-.048-.195-.05-.19-.051-.187-.053-.184-.054-.179-.056-.176-.057-.172-.059-.167-.06-.164-.061-.159-.063-.155-.064-.151-.066-.074-.033-.072-.033-.072-.034-.07-.034-.069-.035-.068-.035-.067-.035-.066-.035-.064-.036-.063-.036-.062-.036-.061-.036-.06-.037-.058-.037-.057-.037-.056-.038-.055-.038-.053-.038-.052-.038-.051-.039-.049-.039-.049-.039-.046-.039-.046-.04-.044-.04-.043-.04-.041-.04-.04-.041-.039-.041-.037-.041-.036-.041-.034-.041-.033-.042-.032-.042-.03-.042-.029-.042-.027-.042-.026-.043-.024-.043-.023-.043-.021-.043-.02-.043-.018-.044-.017-.043-.015-.044-.013-.044-.012-.044-.011-.045-.009-.044-.007-.045-.006-.045-.004-.045-.002-.045-.001-.045v-17l.001-.045.002-.045.004-.045.006-.045.007-.045.009-.044.011-.045.012-.044.013-.044.015-.044.017-.043.018-.044.02-.043.021-.043.023-.043.024-.043.026-.043.027-.042.029-.042.03-.042.032-.042.033-.042.034-.041.036-.041.037-.041.039-.041.04-.041.041-.04.043-.04.044-.04.046-.04.046-.039.049-.039.049-.039.051-.039.052-.038.053-.038.055-.038.056-.038.057-.037.058-.037.06-.037.061-.036.062-.036.063-.036.064-.036.066-.035.067-.035.068-.035.069-.035.07-.034.072-.034.072-.033.074-.033.151-.066.155-.064.159-.063.164-.061.167-.06.172-.059.176-.057.179-.056.184-.054.187-.053.19-.051.195-.05.198-.048.201-.046.204-.045.208-.043.211-.041.214-.04.217-.038.22-.036.223-.034.226-.032.228-.031.231-.028.234-.027.236-.024.238-.023.241-.02.243-.019.245-.016.247-.015.249-.012.251-.01.253-.008.255-.005.256-.004.258-.001.258.001zm-9.258 20.499v.01l.001.021.003.021.004.022.005.021.006.022.007.022.009.023.01.022.011.023.012.023.013.023.015.023.016.024.017.023.018.024.019.024.021.024.022.025.023.024.024.025.052.049.056.05.061.051.066.051.07.051.075.051.079.052.084.052.088.052.092.052.097.052.102.051.105.052.11.052.114.051.119.051.123.051.127.05.131.05.135.05.139.048.144.049.147.047.152.047.155.047.16.045.163.045.167.043.171.043.176.041.178.041.183.039.187.039.19.037.194.035.197.035.202.033.204.031.209.03.212.029.216.027.219.025.222.024.226.021.23.02.233.018.236.016.24.015.243.012.246.01.249.008.253.005.256.004.259.001.26-.001.257-.004.254-.005.25-.008.247-.011.244-.012.241-.014.237-.016.233-.018.231-.021.226-.021.224-.024.22-.026.216-.027.212-.028.21-.031.205-.031.202-.034.198-.034.194-.036.191-.037.187-.039.183-.04.179-.04.175-.042.172-.043.168-.044.163-.045.16-.046.155-.046.152-.047.148-.048.143-.049.139-.049.136-.05.131-.05.126-.05.123-.051.118-.052.114-.051.11-.052.106-.052.101-.052.096-.052.092-.052.088-.053.083-.051.079-.052.074-.052.07-.051.065-.051.06-.051.056-.05.051-.05.023-.024.023-.025.021-.024.02-.024.019-.024.018-.024.017-.024.015-.023.014-.024.013-.023.012-.023.01-.023.01-.022.008-.022.006-.022.006-.022.004-.022.004-.021.001-.021.001-.021v-4.127l-.077.055-.08.053-.083.054-.085.053-.087.052-.09.052-.093.051-.095.05-.097.05-.1.049-.102.049-.105.048-.106.047-.109.047-.111.046-.114.045-.115.045-.118.044-.12.043-.122.042-.124.042-.126.041-.128.04-.13.04-.132.038-.134.038-.135.037-.138.037-.139.035-.142.035-.143.034-.144.033-.147.032-.148.031-.15.03-.151.03-.153.029-.154.027-.156.027-.158.026-.159.025-.161.024-.162.023-.163.022-.165.021-.166.02-.167.019-.169.018-.169.017-.171.016-.173.015-.173.014-.175.013-.175.012-.177.011-.178.01-.179.008-.179.008-.181.006-.182.005-.182.004-.184.003-.184.002h-.37l-.184-.002-.184-.003-.182-.004-.182-.005-.181-.006-.179-.008-.179-.008-.178-.01-.176-.011-.176-.012-.175-.013-.173-.014-.172-.015-.171-.016-.17-.017-.169-.018-.167-.019-.166-.02-.165-.021-.163-.022-.162-.023-.161-.024-.159-.025-.157-.026-.156-.027-.155-.027-.153-.029-.151-.03-.15-.03-.148-.031-.146-.032-.145-.033-.143-.034-.141-.035-.14-.035-.137-.037-.136-.037-.134-.038-.132-.038-.13-.04-.128-.04-.126-.041-.124-.042-.122-.042-.12-.044-.117-.043-.116-.045-.113-.045-.112-.046-.109-.047-.106-.047-.105-.048-.102-.049-.1-.049-.097-.05-.095-.05-.093-.052-.09-.051-.087-.052-.085-.053-.083-.054-.08-.054-.077-.054v4.127zm0-5.654v.011l.001.021.003.021.004.021.005.022.006.022.007.022.009.022.01.022.011.023.012.023.013.023.015.024.016.023.017.024.018.024.019.024.021.024.022.024.023.025.024.024.052.05.056.05.061.05.066.051.07.051.075.052.079.051.084.052.088.052.092.052.097.052.102.052.105.052.11.051.114.051.119.052.123.05.127.051.131.05.135.049.139.049.144.048.147.048.152.047.155.046.16.045.163.045.167.044.171.042.176.042.178.04.183.04.187.038.19.037.194.036.197.034.202.033.204.032.209.03.212.028.216.027.219.025.222.024.226.022.23.02.233.018.236.016.24.014.243.012.246.01.249.008.253.006.256.003.259.001.26-.001.257-.003.254-.006.25-.008.247-.01.244-.012.241-.015.237-.016.233-.018.231-.02.226-.022.224-.024.22-.025.216-.027.212-.029.21-.03.205-.032.202-.033.198-.035.194-.036.191-.037.187-.039.183-.039.179-.041.175-.042.172-.043.168-.044.163-.045.16-.045.155-.047.152-.047.148-.048.143-.048.139-.05.136-.049.131-.05.126-.051.123-.051.118-.051.114-.052.11-.052.106-.052.101-.052.096-.052.092-.052.088-.052.083-.052.079-.052.074-.051.07-.052.065-.051.06-.05.056-.051.051-.049.023-.025.023-.024.021-.025.02-.024.019-.024.018-.024.017-.024.015-.023.014-.023.013-.024.012-.022.01-.023.01-.023.008-.022.006-.022.006-.022.004-.021.004-.022.001-.021.001-.021v-4.139l-.077.054-.08.054-.083.054-.085.052-.087.053-.09.051-.093.051-.095.051-.097.05-.1.049-.102.049-.105.048-.106.047-.109.047-.111.046-.114.045-.115.044-.118.044-.12.044-.122.042-.124.042-.126.041-.128.04-.13.039-.132.039-.134.038-.135.037-.138.036-.139.036-.142.035-.143.033-.144.033-.147.033-.148.031-.15.03-.151.03-.153.028-.154.028-.156.027-.158.026-.159.025-.161.024-.162.023-.163.022-.165.021-.166.02-.167.019-.169.018-.169.017-.171.016-.173.015-.173.014-.175.013-.175.012-.177.011-.178.009-.179.009-.179.007-.181.007-.182.005-.182.004-.184.003-.184.002h-.37l-.184-.002-.184-.003-.182-.004-.182-.005-.181-.007-.179-.007-.179-.009-.178-.009-.176-.011-.176-.012-.175-.013-.173-.014-.172-.015-.171-.016-.17-.017-.169-.018-.167-.019-.166-.02-.165-.021-.163-.022-.162-.023-.161-.024-.159-.025-.157-.026-.156-.027-.155-.028-.153-.028-.151-.03-.15-.03-.148-.031-.146-.033-.145-.033-.143-.033-.141-.035-.14-.036-.137-.036-.136-.037-.134-.038-.132-.039-.13-.039-.128-.04-.126-.041-.124-.042-.122-.043-.12-.043-.117-.044-.116-.044-.113-.046-.112-.046-.109-.046-.106-.047-.105-.048-.102-.049-.1-.049-.097-.05-.095-.051-.093-.051-.09-.051-.087-.053-.085-.052-.083-.054-.08-.054-.077-.054v4.139zm0-5.666v.011l.001.02.003.022.004.021.005.022.006.021.007.022.009.023.01.022.011.023.012.023.013.023.015.023.016.024.017.024.018.023.019.024.021.025.022.024.023.024.024.025.052.05.056.05.061.05.066.051.07.051.075.052.079.051.084.052.088.052.092.052.097.052.102.052.105.051.11.052.114.051.119.051.123.051.127.05.131.05.135.05.139.049.144.048.147.048.152.047.155.046.16.045.163.045.167.043.171.043.176.042.178.04.183.04.187.038.19.037.194.036.197.034.202.033.204.032.209.03.212.028.216.027.219.025.222.024.226.021.23.02.233.018.236.017.24.014.243.012.246.01.249.008.253.006.256.003.259.001.26-.001.257-.003.254-.006.25-.008.247-.01.244-.013.241-.014.237-.016.233-.018.231-.02.226-.022.224-.024.22-.025.216-.027.212-.029.21-.03.205-.032.202-.033.198-.035.194-.036.191-.037.187-.039.183-.039.179-.041.175-.042.172-.043.168-.044.163-.045.16-.045.155-.047.152-.047.148-.048.143-.049.139-.049.136-.049.131-.051.126-.05.123-.051.118-.052.114-.051.11-.052.106-.052.101-.052.096-.052.092-.052.088-.052.083-.052.079-.052.074-.052.07-.051.065-.051.06-.051.056-.05.051-.049.023-.025.023-.025.021-.024.02-.024.019-.024.018-.024.017-.024.015-.023.014-.024.013-.023.012-.023.01-.022.01-.023.008-.022.006-.022.006-.022.004-.022.004-.021.001-.021.001-.021v-4.153l-.077.054-.08.054-.083.053-.085.053-.087.053-.09.051-.093.051-.095.051-.097.05-.1.049-.102.048-.105.048-.106.048-.109.046-.111.046-.114.046-.115.044-.118.044-.12.043-.122.043-.124.042-.126.041-.128.04-.13.039-.132.039-.134.038-.135.037-.138.036-.139.036-.142.034-.143.034-.144.033-.147.032-.148.032-.15.03-.151.03-.153.028-.154.028-.156.027-.158.026-.159.024-.161.024-.162.023-.163.023-.165.021-.166.02-.167.019-.169.018-.169.017-.171.016-.173.015-.173.014-.175.013-.175.012-.177.01-.178.01-.179.009-.179.007-.181.006-.182.006-.182.004-.184.003-.184.001-.185.001-.185-.001-.184-.001-.184-.003-.182-.004-.182-.006-.181-.006-.179-.007-.179-.009-.178-.01-.176-.01-.176-.012-.175-.013-.173-.014-.172-.015-.171-.016-.17-.017-.169-.018-.167-.019-.166-.02-.165-.021-.163-.023-.162-.023-.161-.024-.159-.024-.157-.026-.156-.027-.155-.028-.153-.028-.151-.03-.15-.03-.148-.032-.146-.032-.145-.033-.143-.034-.141-.034-.14-.036-.137-.036-.136-.037-.134-.038-.132-.039-.13-.039-.128-.041-.126-.041-.124-.041-.122-.043-.12-.043-.117-.044-.116-.044-.113-.046-.112-.046-.109-.046-.106-.048-.105-.048-.102-.048-.1-.05-.097-.049-.095-.051-.093-.051-.09-.052-.087-.052-.085-.053-.083-.053-.08-.054-.077-.054v4.153zm8.74-8.179l-.257.004-.254.005-.25.008-.247.011-.244.012-.241.014-.237.016-.233.018-.231.021-.226.022-.224.023-.22.026-.216.027-.212.028-.21.031-.205.032-.202.033-.198.034-.194.036-.191.038-.187.038-.183.04-.179.041-.175.042-.172.043-.168.043-.163.045-.16.046-.155.046-.152.048-.148.048-.143.048-.139.049-.136.05-.131.05-.126.051-.123.051-.118.051-.114.052-.11.052-.106.052-.101.052-.096.052-.092.052-.088.052-.083.052-.079.052-.074.051-.07.052-.065.051-.06.05-.056.05-.051.05-.023.025-.023.024-.021.024-.02.025-.019.024-.018.024-.017.023-.015.024-.014.023-.013.023-.012.023-.01.023-.01.022-.008.022-.006.023-.006.021-.004.022-.004.021-.001.021-.001.021.001.021.001.021.004.021.004.022.006.021.006.023.008.022.01.022.01.023.012.023.013.023.014.023.015.024.017.023.018.024.019.024.02.025.021.024.023.024.023.025.051.05.056.05.06.05.065.051.07.052.074.051.079.052.083.052.088.052.092.052.096.052.101.052.106.052.11.052.114.052.118.051.123.051.126.051.131.05.136.05.139.049.143.048.148.048.152.048.155.046.16.046.163.045.168.043.172.043.175.042.179.041.183.04.187.038.191.038.194.036.198.034.202.033.205.032.21.031.212.028.216.027.22.026.224.023.226.022.231.021.233.018.237.016.241.014.244.012.247.011.25.008.254.005.257.004.26.001.26-.001.257-.004.254-.005.25-.008.247-.011.244-.012.241-.014.237-.016.233-.018.231-.021.226-.022.224-.023.22-.026.216-.027.212-.028.21-.031.205-.032.202-.033.198-.034.194-.036.191-.038.187-.038.183-.04.179-.041.175-.042.172-.043.168-.043.163-.045.16-.046.155-.046.152-.048.148-.048.143-.048.139-.049.136-.05.131-.05.126-.051.123-.051.118-.051.114-.052.11-.052.106-.052.101-.052.096-.052.092-.052.088-.052.083-.052.079-.052.074-.051.07-.052.065-.051.06-.05.056-.05.051-.05.023-.025.023-.024.021-.024.02-.025.019-.024.018-.024.017-.023.015-.024.014-.023.013-.023.012-.023.01-.023.01-.022.008-.022.006-.023.006-.021.004-.022.004-.021.001-.021.001-.021-.001-.021-.001-.021-.004-.021-.004-.022-.006-.021-.006-.023-.008-.022-.01-.022-.01-.023-.012-.023-.013-.023-.014-.023-.015-.024-.017-.023-.018-.024-.019-.024-.02-.025-.021-.024-.023-.024-.023-.025-.051-.05-.056-.05-.06-.05-.065-.051-.07-.052-.074-.051-.079-.052-.083-.052-.088-.052-.092-.052-.096-.052-.101-.052-.106-.052-.11-.052-.114-.052-.118-.051-.123-.051-.126-.051-.131-.05-.136-.05-.139-.049-.143-.048-.148-.048-.152-.048-.155-.046-.16-.046-.163-.045-.168-.043-.172-.043-.175-.042-.179-.041-.183-.04-.187-.038-.191-.038-.194-.036-.198-.034-.202-.033-.205-.032-.21-.031-.212-.028-.216-.027-.22-.026-.224-.023-.226-.022-.231-.021-.233-.018-.237-.016-.241-.014-.244-.012-.247-.011-.25-.008-.254-.005-.257-.004-.26-.001-.26.001z"/></symbol></defs><defs><symbol id="clock" width="24" height="24"><path transform="scale(.5)" d="M12 2c5.514 0 10 4.486 10 10s-4.486 10-10 10-10-4.486-10-10 4.486-10 10-10zm0-2c-6.627 0-12 5.373-12 12s5.373 12 12 12 12-5.373 12-12-5.373-12-12-12zm5.848 12.459c.202.038.202.333.001.372-1.907.361-6.045 1.111-6.547 1.111-.719 0-1.301-.582-1.301-1.301 0-.512.77-5.447 1.125-7.445.034-.192.312-.181.343.014l.985 6.238 5.394 1.011z"/></symbol></defs><defs><marker id="arrowhead" refX="7.9" refY="5" markerUnits="userSpaceOnUse" markerWidth="12" markerHeight="12" orient="auto-start-reverse"><path d="M -1 0 L 10 5 L 0 10 z"/></marker></defs><defs><marker id="crosshead" markerWidth="15" markerHeight="8" orient="auto" refX="4" refY="4.5"><path fill="none" stroke="#000000" stroke-width="1pt" d="M 1,2 L 6,7 M 6,2 L 1,7" style="stroke-dasharray: 0, 0;"/></marker></defs><defs><marker id="filled-head" refX="15.5" refY="7" markerWidth="20" markerHeight="28" orient="auto"><path d="M 18,7 L9,13 L14,7 L9,1 Z"/></marker></defs><defs><marker id="sequencenumber" refX="15" refY="15" markerWidth="60" markerHeight="40" orient="auto"><circle cx="15" cy="15" r="6"/></marker></defs><g><rect x="257.5" y="121" fill="#EDF2AE" stroke="#666" width="233" height="54" class="note"/><text x="374" y="126" text-anchor="middle" dominant-baseline="middle" alignment-baseline="middle" class="noteText" dy="1em" style="font-size: 16px; font-weight: 400;"><tspan x="374">Charge CLAUDE.md + mémoire</tspan></text><text x="374" y="143" text-anchor="middle" dominant-baseline="middle" alignment-baseline="middle" class="noteText" dy="1em" style="font-size: 16px; font-weight: 400;"><tspan x="374">Découvre outils MCP (tools/list)</tspan></text></g><g><rect x="262" y="275" fill="#EDF2AE" stroke="#666" width="224" height="54" class="note"/><text x="374" y="280" text-anchor="middle" dominant-baseline="middle" alignment-baseline="middle" class="noteText" dy="1em" style="font-size: 16px; font-weight: 400;"><tspan x="374">Fusionne built-in + MCP tools</tspan></text><text x="374" y="297" text-anchor="middle" dominant-baseline="middle" alignment-baseline="middle" class="noteText" dy="1em" style="font-size: 16px; font-weight: 400;"><tspan x="374">dans le schéma envoyé au LLM</tspan></text></g><g><rect x="349" y="339" fill="#EDF2AE" stroke="#666" width="368" height="37" class="note"/><text x="533" y="344" text-anchor="middle" dominant-baseline="middle" alignment-baseline="middle" class="noteText" dy="1em" style="font-size: 16px; font-weight: 400;"><tspan x="533">Tour 1 — Compréhension</tspan></text></g><g><rect x="299" y="476" fill="#EDF2AE" stroke="#666" width="150" height="39" class="note"/><text x="374" y="481" text-anchor="middle" dominant-baseline="middle" alignment-baseline="middle" class="noteText" dy="1em" style="font-size: 16px; font-weight: 400;"><tspan x="374">⚡ Hook pre-tool</tspan></text></g><g><rect x="299" y="615" fill="#EDF2AE" stroke="#666" width="150" height="39" class="note"/><text x="374" y="620" text-anchor="middle" dominant-baseline="middle" alignment-baseline="middle" class="noteText" dy="1em" style="font-size: 16px; font-weight: 400;"><tspan x="374">⚡ Hook post-tool</tspan></text></g><g><rect x="349" y="664" fill="#EDF2AE" stroke="#666" width="368" height="37" class="note"/><text x="533" y="669" text-anchor="middle" dominant-baseline="middle" alignment-baseline="middle" class="noteText" dy="1em" style="font-size: 16px; font-weight: 400;"><tspan x="533">Tour 2 — Recherche parallèle via sous-agents</tspan></text></g><g><rect x="1457.5" y="892" fill="#EDF2AE" stroke="#666" width="273" height="37" class="note"/><text x="1594" y="897" text-anchor="middle" dominant-baseline="middle" alignment-baseline="middle" class="noteText" dy="1em" style="font-size: 16px; font-weight: 400;"><tspan x="1594">Boucle autonome (son propre contexte)</tspan></text></g><g><rect x="1644" y="1504" fill="#EDF2AE" stroke="#666" width="309" height="37" class="note"/><text x="1799" y="1509" text-anchor="middle" dominant-baseline="middle" alignment-baseline="middle" class="noteText" dy="1em" style="font-size: 16px; font-weight: 400;"><tspan x="1799">Boucle autonome (modèle différent possible)</tspan></text></g><g><line x1="363" y1="801" x2="1963" y2="801" class="loopLine"/><line x1="1963" y1="801" x2="1963" y2="2047" class="loopLine"/><line x1="363" y1="2047" x2="1963" y2="2047" class="loopLine"/><line x1="363" y1="801" x2="363" y2="2047" class="loopLine"/><line x1="363" y1="1440" x2="1963" y2="1440" class="loopLine" style="stroke-dasharray: 3, 3;"/><polygon points="363,801 413,801 413,814 404.6,821 363,821" class="labelBox"/><text x="388" y="814" text-anchor="middle" dominant-baseline="middle" alignment-baseline="middle" class="labelText" style="font-size: 16px; font-weight: 400;">par</text><text x="1188" y="819" text-anchor="middle" class="loopText" style="font-size: 16px; font-weight: 400;"><tspan x="1188">[Exécution parallèle]</tspan></text></g><g><rect x="299" y="2057" fill="#EDF2AE" stroke="#666" width="150" height="37" class="note"/><text x="374" y="2062" text-anchor="middle" dominant-baseline="middle" alignment-baseline="middle" class="noteText" dy="1em" style="font-size: 16px; font-weight: 400;"><tspan x="374">join(A, B)</tspan></text></g><g><rect x="349" y="2104" fill="#EDF2AE" stroke="#666" width="368" height="38" class="note"/><text x="533" y="2109" text-anchor="middle" dominant-baseline="middle" alignment-baseline="middle" class="noteText" dy="1em" style="font-size: 16px; font-weight: 400;"><tspan x="533">Tour 3 — Édition avec permission</tspan></text></g><g><rect x="349" y="2242" fill="#EDF2AE" stroke="#666" width="568" height="39" class="note"/><text x="633" y="2247" text-anchor="middle" dominant-baseline="middle" alignment-baseline="middle" class="noteText" dy="1em" style="font-size: 16px; font-weight: 400;"><tspan x="633">🔐 Permission Gate — action destructive</tspan></text></g><g><rect x="349" y="2473" fill="#EDF2AE" stroke="#666" width="368" height="37" class="note"/><text x="533" y="2478" text-anchor="middle" dominant-baseline="middle" alignment-baseline="middle" class="noteText" dy="1em" style="font-size: 16px; font-weight: 400;"><tspan x="533">Tour 4 — Notification externe via MCP</tspan></text></g><g><rect x="349" y="2792" fill="#EDF2AE" stroke="#666" width="368" height="37" class="note"/><text x="533" y="2797" text-anchor="middle" dominant-baseline="middle" alignment-baseline="middle" class="noteText" dy="1em" style="font-size: 16px; font-weight: 400;"><tspan x="533">Tour 5 — Conclusion</tspan></text></g><g><rect x="246" y="2975" fill="#EDF2AE" stroke="#666" width="256" height="39" class="note"/><text x="374" y="2980" text-anchor="middle" dominant-baseline="middle" alignment-baseline="middle" class="noteText" dy="1em" style="font-size: 16px; font-weight: 400;"><tspan x="374">💾 Sauvegarde mémoire si pertinent</tspan></text></g><g class="actor-man actor-top" name="User"><line id="actor-man-torso0" x1="75" y1="25" x2="75" y2="45"/><line id="actor-man-arms0" x1="57" y1="33" x2="93" y2="33"/><line x1="57" y1="60" x2="75" y2="45"/><line x1="75" y1="45" x2="91" y2="60"/><circle cx="75" cy="10" r="15" width="150" height="65"/><text x="75" y="67.5" dominant-baseline="central" alignment-baseline="central" class="actor actor-man" style="text-anchor: middle; font-size: 16px; font-weight: 400;"><tspan x="75" dy="0">👤 Utilisateur</tspan></text></g><text x="223" y="80" text-anchor="middle" dominant-baseline="middle" alignment-baseline="middle" class="messageText" dy="1em" style="font-size: 16px; font-weight: 400;">prompt: "Refactore le module auth"</text><line x1="76" y1="111" x2="370" y2="111" class="messageLine0" stroke-width="2" stroke="none" marker-end="url(#arrowhead)" style="fill: none;"/><text x="879" y="190" text-anchor="middle" dominant-baseline="middle" alignment-baseline="middle" class="messageText" dy="1em" style="font-size: 16px; font-weight: 400;">JSON-RPC: tools/list</text><line x1="375" y1="219" x2="1383" y2="219" class="messageLine0" stroke-width="2" stroke="none" marker-end="url(#arrowhead)" style="fill: none;"/><text x="882" y="234" text-anchor="middle" dominant-baseline="middle" alignment-baseline="middle" class="messageText" dy="1em" style="font-size: 16px; font-weight: 400;">[{name, description, schema}, ...]</text><line x1="1386" y1="265" x2="378" y2="265" class="messageLine1" stroke-width="2" stroke="none" marker-end="url(#arrowhead)" style="stroke-dasharray: 3, 3; fill: none;"/><text x="532" y="391" text-anchor="middle" dominant-baseline="middle" alignment-baseline="middle" class="messageText" dy="1em" style="font-size: 16px; font-weight: 400;">LLM call</text><line x1="375" y1="420" x2="688" y2="420" class="messageLine0" stroke-width="2" stroke="none" marker-end="url(#arrowhead)" style="fill: none;"/><text x="535" y="435" text-anchor="middle" dominant-baseline="middle" alignment-baseline="middle" class="messageText" dy="1em" style="font-size: 16px; font-weight: 400;">tool_call: Read("/src/auth.ts")</text><line x1="691" y1="466" x2="378" y2="466" class="messageLine1" stroke-width="2" stroke="none" marker-end="url(#arrowhead)" style="stroke-dasharray: 3, 3; fill: none;"/><text x="632" y="530" text-anchor="middle" dominant-baseline="middle" alignment-baseline="middle" class="messageText" dy="1em" style="font-size: 16px; font-weight: 400;">syscall open+read</text><line x1="375" y1="561" x2="888" y2="561" class="messageLine0" stroke-width="2" stroke="none" marker-end="url(#arrowhead)" style="fill: none;"/><text x="635" y="576" text-anchor="middle" dominant-baseline="middle" alignment-baseline="middle" class="messageText" dy="1em" style="font-size: 16px; font-weight: 400;">contenu du fichier</text><line x1="891" y1="605" x2="378" y2="605" class="messageLine1" stroke-width="2" stroke="none" marker-end="url(#arrowhead)" style="stroke-dasharray: 3, 3; fill: none;"/><text x="532" y="716" text-anchor="middle" dominant-baseline="middle" alignment-baseline="middle" class="messageText" dy="1em" style="font-size: 16px; font-weight: 400;">LLM call</text><line x1="375" y1="745" x2="688" y2="745" class="messageLine0" stroke-width="2" stroke="none" marker-end="url(#arrowhead)" style="fill: none;"/><text x="535" y="760" text-anchor="middle" dominant-baseline="middle" alignment-baseline="middle" class="messageText" dy="1em" style="font-size: 16px; font-weight: 400;">tool_call: Agent x2</text><line x1="691" y1="791" x2="378" y2="791" class="messageLine1" stroke-width="2" stroke="none" marker-end="url(#arrowhead)" style="stroke-dasharray: 3, 3; fill: none;"/><text x="983" y="851" text-anchor="middle" dominant-baseline="middle" alignment-baseline="middle" class="messageText" dy="1em" style="font-size: 16px; font-weight: 400;">fork — "Trouve les usages + PRs liées"</text><line x1="375" y1="882" x2="1590" y2="882" class="messageLine0" stroke-width="2" stroke="none" marker-end="url(#arrowhead)" style="fill: none;"/><text x="1145" y="944" text-anchor="middle" dominant-baseline="middle" alignment-baseline="middle" class="messageText" dy="1em" style="font-size: 16px; font-weight: 400;">LLM call A.1</text><line x1="1593" y1="973" x2="696" y2="973" class="messageLine0" stroke-width="2" stroke="none" marker-end="url(#arrowhead)" style="fill: none;"/><text x="1142" y="988" text-anchor="middle" dominant-baseline="middle" alignment-baseline="middle" class="messageText" dy="1em" style="font-size: 16px; font-weight: 400;">tool_call: Grep("auth")</text><line x1="693" y1="1019" x2="1590" y2="1019" class="messageLine1" stroke-width="2" stroke="none" marker-end="url(#arrowhead)" style="stroke-dasharray: 3, 3; fill: none;"/><text x="1245" y="1034" text-anchor="middle" dominant-baseline="middle" alignment-baseline="middle" class="messageText" dy="1em" style="font-size: 16px; font-weight: 400;">ripgrep</text><line x1="1593" y1="1065" x2="896" y2="1065" class="messageLine0" stroke-width="2" stroke="none" marker-end="url(#arrowhead)" style="fill: none;"/><text x="1242" y="1080" text-anchor="middle" dominant-baseline="middle" alignment-baseline="middle" class="messageText" dy="1em" style="font-size: 16px; font-weight: 400;">résultats</text><line x1="893" y1="1109" x2="1590" y2="1109" class="messageLine1" stroke-width="2" stroke="none" marker-end="url(#arrowhead)" style="stroke-dasharray: 3, 3; fill: none;"/><text x="1145" y="1124" text-anchor="middle" dominant-baseline="middle" alignment-baseline="middle" class="messageText" dy="1em" style="font-size: 16px; font-weight: 400;">LLM call A.2</text><line x1="1593" y1="1153" x2="696" y2="1153" class="messageLine0" stroke-width="2" stroke="none" marker-end="url(#arrowhead)" style="fill: none;"/><text x="1142" y="1168" text-anchor="middle" dominant-baseline="middle" alignment-baseline="middle" class="messageText" dy="1em" style="font-size: 16px; font-weight: 400;">tool_call: mcp__github__search_code</text><line x1="693" y1="1199" x2="1590" y2="1199" class="messageLine1" stroke-width="2" stroke="none" marker-end="url(#arrowhead)" style="stroke-dasharray: 3, 3; fill: none;"/><text x="1345" y="1214" text-anchor="middle" dominant-baseline="middle" alignment-baseline="middle" class="messageText" dy="1em" style="font-size: 16px; font-weight: 400;">dispatch MCP</text><line x1="1593" y1="1245" x2="1096" y2="1245" class="messageLine0" stroke-width="2" stroke="none" marker-end="url(#arrowhead)" style="fill: none;"/><text x="1238" y="1260" text-anchor="middle" dominant-baseline="middle" alignment-baseline="middle" class="messageText" dy="1em" style="font-size: 16px; font-weight: 400;">JSON-RPC tools/call (stdio)</text><line x1="1093" y1="1291" x2="1383" y2="1291" class="messageLine0" stroke-width="2" stroke="none" marker-end="url(#arrowhead)" style="fill: none;"/><text x="1241" y="1306" text-anchor="middle" dominant-baseline="middle" alignment-baseline="middle" class="messageText" dy="1em" style="font-size: 16px; font-weight: 400;">résultats PRs</text><line x1="1386" y1="1335" x2="1096" y2="1335" class="messageLine1" stroke-width="2" stroke="none" marker-end="url(#arrowhead)" style="stroke-dasharray: 3, 3; fill: none;"/><text x="1342" y="1350" text-anchor="middle" dominant-baseline="middle" alignment-baseline="middle" class="messageText" dy="1em" style="font-size: 16px; font-weight: 400;">résultats</text><line x1="1093" y1="1379" x2="1590" y2="1379" class="messageLine1" stroke-width="2" stroke="none" marker-end="url(#arrowhead)" style="stroke-dasharray: 3, 3; fill: none;"/><text x="986" y="1394" text-anchor="middle" dominant-baseline="middle" alignment-baseline="middle" class="messageText" dy="1em" style="font-size: 16px; font-weight: 400;">return result_A</text><line x1="1593" y1="1425" x2="378" y2="1425" class="messageLine1" stroke-width="2" stroke="none" marker-end="url(#arrowhead)" style="stroke-dasharray: 3, 3; fill: none;"/><text x="1085" y="1465" text-anchor="middle" dominant-baseline="middle" alignment-baseline="middle" class="messageText" dy="1em" style="font-size: 16px; font-weight: 400;">fork — "Vérifie tests + crée issue"</text><line x1="375" y1="1494" x2="1794.5" y2="1494" class="messageLine0" stroke-width="2" stroke="none" marker-end="url(#arrowhead)" style="fill: none;"/><text x="1247" y="1556" text-anchor="middle" dominant-baseline="middle" alignment-baseline="middle" class="messageText" dy="1em" style="font-size: 16px; font-weight: 400;">LLM call B.1</text><line x1="1797.5" y1="1585" x2="696" y2="1585" class="messageLine0" stroke-width="2" stroke="none" marker-end="url(#arrowhead)" style="fill: none;"/><text x="1244" y="1600" text-anchor="middle" dominant-baseline="middle" alignment-baseline="middle" class="messageText" dy="1em" style="font-size: 16px; font-weight: 400;">tool_call: Glob("**/auth*.test.*")</text><line x1="693" y1="1631" x2="1794.5" y2="1631" class="messageLine1" stroke-width="2" stroke="none" marker-end="url(#arrowhead)" style="stroke-dasharray: 3, 3; fill: none;"/><text x="1347" y="1646" text-anchor="middle" dominant-baseline="middle" alignment-baseline="middle" class="messageText" dy="1em" style="font-size: 16px; font-weight: 400;">glob</text><line x1="1797.5" y1="1677" x2="896" y2="1677" class="messageLine0" stroke-width="2" stroke="none" marker-end="url(#arrowhead)" style="fill: none;"/><text x="1344" y="1692" text-anchor="middle" dominant-baseline="middle" alignment-baseline="middle" class="messageText" dy="1em" style="font-size: 16px; font-weight: 400;">fichiers tests</text><line x1="893" y1="1721" x2="1794.5" y2="1721" class="messageLine1" stroke-width="2" stroke="none" marker-end="url(#arrowhead)" style="stroke-dasharray: 3, 3; fill: none;"/><text x="1247" y="1736" text-anchor="middle" dominant-baseline="middle" alignment-baseline="middle" class="messageText" dy="1em" style="font-size: 16px; font-weight: 400;">LLM call B.2</text><line x1="1797.5" y1="1765" x2="696" y2="1765" class="messageLine0" stroke-width="2" stroke="none" marker-end="url(#arrowhead)" style="fill: none;"/><text x="1244" y="1780" text-anchor="middle" dominant-baseline="middle" alignment-baseline="middle" class="messageText" dy="1em" style="font-size: 16px; font-weight: 400;">tool_call: mcp__github__create_issue</text><line x1="693" y1="1811" x2="1794.5" y2="1811" class="messageLine1" stroke-width="2" stroke="none" marker-end="url(#arrowhead)" style="stroke-dasharray: 3, 3; fill: none;"/><text x="1447" y="1826" text-anchor="middle" dominant-baseline="middle" alignment-baseline="middle" class="messageText" dy="1em" style="font-size: 16px; font-weight: 400;">dispatch MCP</text><line x1="1797.5" y1="1857" x2="1096" y2="1857" class="messageLine0" stroke-width="2" stroke="none" marker-end="url(#arrowhead)" style="fill: none;"/><text x="1238" y="1872" text-anchor="middle" dominant-baseline="middle" alignment-baseline="middle" class="messageText" dy="1em" style="font-size: 16px; font-weight: 400;">JSON-RPC tools/call (stdio)</text><line x1="1093" y1="1903" x2="1383" y2="1903" class="messageLine0" stroke-width="2" stroke="none" marker-end="url(#arrowhead)" style="fill: none;"/><text x="1241" y="1918" text-anchor="middle" dominant-baseline="middle" alignment-baseline="middle" class="messageText" dy="1em" style="font-size: 16px; font-weight: 400;">issue</text><line x1="1386" y1="1947" x2="1096" y2="1947" class="messageLine1" stroke-width="2" stroke="none" marker-end="url(#arrowhead)" style="stroke-dasharray: 3, 3; fill: none;"/><text x="1444" y="1962" text-anchor="middle" dominant-baseline="middle" alignment-baseline="middle" class="messageText" dy="1em" style="font-size: 16px; font-weight: 400;">confirmation</text><line x1="1093" y1="1991" x2="1794.5" y2="1991" class="messageLine1" stroke-width="2" stroke="none" marker-end="url(#arrowhead)" style="stroke-dasharray: 3, 3; fill: none;"/><text x="1088" y="2006" text-anchor="middle" dominant-baseline="middle" alignment-baseline="middle" class="messageText" dy="1em" style="font-size: 16px; font-weight: 400;">return result_B</text><line x1="1797.5" y1="2037" x2="378" y2="2037" class="messageLine1" stroke-width="2" stroke="none" marker-end="url(#arrowhead)" style="stroke-dasharray: 3, 3; fill: none;"/><text x="532" y="2157" text-anchor="middle" dominant-baseline="middle" alignment-baseline="middle" class="messageText" dy="1em" style="font-size: 16px; font-weight: 400;">LLM call</text><line x1="375" y1="2186" x2="688" y2="2186" class="messageLine0" stroke-width="2" stroke="none" marker-end="url(#arrowhead)" style="fill: none;"/><text x="535" y="2201" text-anchor="middle" dominant-baseline="middle" alignment-baseline="middle" class="messageText" dy="1em" style="font-size: 16px; font-weight: 400;">tool_call: Edit("/src/auth.ts", ...)</text><line x1="691" y1="2232" x2="378" y2="2232" class="messageLine1" stroke-width="2" stroke="none" marker-end="url(#arrowhead)" style="stroke-dasharray: 3, 3; fill: none;"/><text x="226" y="2296" text-anchor="middle" dominant-baseline="middle" alignment-baseline="middle" class="messageText" dy="1em" style="font-size: 16px; font-weight: 400;">Demande confirmation</text><line x1="373" y1="2325" x2="79" y2="2325" class="messageLine0" stroke-width="2" stroke="none" marker-end="url(#arrowhead)" style="fill: none;"/><text x="223" y="2340" text-anchor="middle" dominant-baseline="middle" alignment-baseline="middle" class="messageText" dy="1em" style="font-size: 16px; font-weight: 400;">✅ Approuvé</text><line x1="76" y1="2373" x2="370" y2="2373" class="messageLine1" stroke-width="2" stroke="none" marker-end="url(#arrowhead)" style="stroke-dasharray: 3, 3; fill: none;"/><text x="632" y="2388" text-anchor="middle" dominant-baseline="middle" alignment-baseline="middle" class="messageText" dy="1em" style="font-size: 16px; font-weight: 400;">syscall write</text><line x1="375" y1="2419" x2="888" y2="2419" class="messageLine0" stroke-width="2" stroke="none" marker-end="url(#arrowhead)" style="fill: none;"/><text x="635" y="2434" text-anchor="middle" dominant-baseline="middle" alignment-baseline="middle" class="messageText" dy="1em" style="font-size: 16px; font-weight: 400;">OK</text><line x1="891" y1="2463" x2="378" y2="2463" class="messageLine1" stroke-width="2" stroke="none" marker-end="url(#arrowhead)" style="stroke-dasharray: 3, 3; fill: none;"/><text x="532" y="2525" text-anchor="middle" dominant-baseline="middle" alignment-baseline="middle" class="messageText" dy="1em" style="font-size: 16px; font-weight: 400;">LLM call</text><line x1="375" y1="2554" x2="688" y2="2554" class="messageLine0" stroke-width="2" stroke="none" marker-end="url(#arrowhead)" style="fill: none;"/><text x="535" y="2569" text-anchor="middle" dominant-baseline="middle" alignment-baseline="middle" class="messageText" dy="1em" style="font-size: 16px; font-weight: 400;">tool_call: mcp__slack__send_message</text><line x1="691" y1="2600" x2="378" y2="2600" class="messageLine1" stroke-width="2" stroke="none" marker-end="url(#arrowhead)" style="stroke-dasharray: 3, 3; fill: none;"/><text x="732" y="2615" text-anchor="middle" dominant-baseline="middle" alignment-baseline="middle" class="messageText" dy="1em" style="font-size: 16px; font-weight: 400;">dispatch MCP</text><line x1="375" y1="2646" x2="1088" y2="2646" class="messageLine0" stroke-width="2" stroke="none" marker-end="url(#arrowhead)" style="fill: none;"/><text x="1238" y="2661" text-anchor="middle" dominant-baseline="middle" alignment-baseline="middle" class="messageText" dy="1em" style="font-size: 16px; font-weight: 400;">JSON-RPC tools/call (SSE distant)</text><line x1="1093" y1="2692" x2="1383" y2="2692" class="messageLine0" stroke-width="2" stroke="none" marker-end="url(#arrowhead)" style="fill: none;"/><text x="1241" y="2707" text-anchor="middle" dominant-baseline="middle" alignment-baseline="middle" class="messageText" dy="1em" style="font-size: 16px; font-weight: 400;">message envoyé</text><line x1="1386" y1="2738" x2="1096" y2="2738" class="messageLine1" stroke-width="2" stroke="none" marker-end="url(#arrowhead)" style="stroke-dasharray: 3, 3; fill: none;"/><text x="735" y="2753" text-anchor="middle" dominant-baseline="middle" alignment-baseline="middle" class="messageText" dy="1em" style="font-size: 16px; font-weight: 400;">confirmation</text><line x1="1091" y1="2782" x2="378" y2="2782" class="messageLine1" stroke-width="2" stroke="none" marker-end="url(#arrowhead)" style="stroke-dasharray: 3, 3; fill: none;"/><text x="532" y="2844" text-anchor="middle" dominant-baseline="middle" alignment-baseline="middle" class="messageText" dy="1em" style="font-size: 16px; font-weight: 400;">LLM call</text><line x1="375" y1="2873" x2="688" y2="2873" class="messageLine0" stroke-width="2" stroke="none" marker-end="url(#arrowhead)" style="fill: none;"/><text x="535" y="2888" text-anchor="middle" dominant-baseline="middle" alignment-baseline="middle" class="messageText" dy="1em" style="font-size: 16px; font-weight: 400;">texte final</text><line x1="691" y1="2917" x2="378" y2="2917" class="messageLine1" stroke-width="2" stroke="none" marker-end="url(#arrowhead)" style="stroke-dasharray: 3, 3; fill: none;"/><text x="226" y="2932" text-anchor="middle" dominant-baseline="middle" alignment-baseline="middle" class="messageText" dy="1em" style="font-size: 16px; font-weight: 400;">📄 "Refactoring terminé, issue</text><line x1="373" y1="2965" x2="79" y2="2965" class="messageLine0" stroke-width="2" stroke="none" marker-end="url(#arrowhead)" style="fill: none;"/><g class="actor-man actor-bottom" name="User"><line id="actor-man-torso7" x1="75" y1="3059" x2="75" y2="3079"/><line id="actor-man-arms7" x1="57" y1="3067" x2="93" y2="3067"/><line x1="57" y1="3094" x2="75" y2="3079"/><line x1="75" y1="3079" x2="91" y2="3094"/><circle cx="75" cy="3044" r="15" width="150" height="65"/><text x="75" y="3101.5" dominant-baseline="central" alignment-baseline="central" class="actor actor-man" style="text-anchor: middle; font-size: 16px; font-weight: 400;"><tspan x="75" dy="0">👤 Utilisateur</tspan></text></g></svg>